<?xml version="1.0" standalone="no"?>
<!DOCTYPE svg PUBLIC "-//W3C//DTD SVG 20010904//EN"
 "http://www.w3.org/TR/2001/REC-SVG-20010904/DTD/svg10.dtd">
<svg version="1.0" xmlns="http://www.w3.org/2000/svg"
 width="512.000000pt" height="512.000000pt" viewBox="0 0 512.000000 512.000000"
 preserveAspectRatio="xMidYMid meet">

<g transform="translate(0.000000,512.000000) scale(0.100000,-0.100000)"
fill="orange" stroke="none">
<path d="M2460 5105 c-99 -32 -202 -146 -217 -239 -7 -45 -21 -55 -268 -191
-403 -223 -775 -374 -1074 -436 -80 -16 -135 -19 -390 -19 -316 0 -351 -4
-413 -49 -139 -99 -124 -313 27 -391 49 -25 50 -25 351 -28 l301 -3 7 -87 c59
-786 59 -1723 0 -2609 l-7 -103 89 -91 c346 -355 943 -670 1583 -834 123 -32
129 -31 376 43 606 184 1108 462 1429 791 l89 91 -6 93 c-62 886 -62 1841 -1
2624 l7 82 301 3 c301 3 302 3 351 28 152 78 165 298 24 394 -61 42 -99 46
-410 46 -254 0 -310 3 -390 19 -327 68 -765 254 -1203 510 -127 75 -129 77
-141 122 -24 97 -95 182 -184 222 -59 26 -170 32 -231 12z m206 -113 c167 -86
159 -319 -15 -407 -47 -24 -137 -22 -187 3 -182 94 -168 347 23 418 48 18 129
12 179 -14z m-416 -306 c0 -7 16 -38 35 -71 20 -32 34 -60 31 -62 -16 -16
-331 -189 -462 -254 l-162 -79 -233 0 -234 1 100 38 c238 90 557 243 790 378
66 38 123 68 128 66 4 -2 7 -10 7 -17z m790 -68 c230 -131 532 -274 755 -359
l100 -38 -234 -1 -234 0 -176 88 c-146 73 -383 203 -440 241 -11 7 -10 14 8
40 12 16 31 51 42 76 20 44 22 46 42 32 12 -8 74 -43 137 -79z m-506 -145 c41
-3 90 0 121 7 52 12 53 12 116 -25 35 -21 145 -82 244 -137 l179 -98 -634 0
-635 0 155 84 c85 46 193 106 240 135 68 41 91 50 115 46 17 -4 61 -9 99 -12z
m2419 -376 c37 -24 67 -75 67 -112 0 -44 -31 -96 -71 -117 -32 -17 -127 -18
-2389 -18 -2262 0 -2357 1 -2389 18 -39 21 -71 73 -71 115 0 54 43 111 96 127
16 4 1087 8 2379 7 2247 -2 2352 -3 2378 -20z m-1833 -2086 l0 -1739 -129 -45
c-71 -25 -196 -65 -277 -88 l-149 -42 -70 18 c-302 76 -685 227 -960 377 -221
121 -470 304 -608 446 l-49 50 11 73 c18 112 67 306 122 474 195 605 524 1116
912 1420 l77 60 0 367 0 368 560 0 560 0 0 -1739z"fill="green" stroke="none"/>
</g>
</svg>
