<?xml version="1.0" standalone="no"?>
<!DOCTYPE svg PUBLIC "-//W3C//DTD SVG 20010904//EN"
 "http://www.w3.org/TR/2001/REC-SVG-20010904/DTD/svg10.dtd">
<svg version="1.0" xmlns="http://www.w3.org/2000/svg"
 width="512.000000pt" height="512.000000pt" viewBox="0 0 512.000000 512.000000"
 preserveAspectRatio="xMidYMid meet">

<g transform="translate(0.000000,512.000000) scale(0.100000,-0.100000)"
fill="#000000" stroke="none">
<path d="M4045 4594 c-363 -49 -749 -218 -1105 -483 -404 -301 -822 -748
-1136 -1215 l-97 -145 -31 16 c-53 28 -128 43 -212 43 -142 0 -264 -51 -362
-154 -97 -101 -142 -212 -142 -350 0 -91 16 -159 53 -233 l25 -50 -62 -6 c-86
-7 -166 -40 -226 -94 -36 -33 -125 -157 -302 -421 -138 -207 -262 -401 -277
-431 -23 -49 -26 -69 -26 -161 0 -93 3 -112 27 -162 31 -67 103 -147 162 -182
147 -86 343 -67 471 45 57 51 570 824 589 890 21 70 20 181 -2 245 l-18 50 91
0 c140 0 251 45 359 144 l45 41 120 -81 c67 -44 121 -85 121 -90 0 -6 -38 -68
-85 -138 -47 -70 -85 -136 -85 -148 0 -29 25 -48 52 -40 33 8 242 327 234 354
-5 15 -141 112 -298 213 -5 3 3 41 18 85 63 184 19 384 -112 520 -24 24 -44
47 -44 50 0 3 30 49 66 102 l66 97 39 -3 c91 -9 334 44 461 100 379 167 588
472 665 973 21 135 5 127 153 70 344 -134 674 -136 981 -5 161 68 300 169 441
319 l86 92 69 -24 68 -24 3 -1554 2 -1554 -26 -52 c-72 -148 -263 -173 -372
-49 -48 55 -53 89 -50 309 l3 197 75 -55 c81 -59 122 -69 140 -36 5 11 7 26 4
35 -5 14 -201 158 -251 185 -30 15 -62 -1 -65 -32 0 -12 0 -137 1 -277 3 -249
4 -256 28 -312 51 -114 155 -181 283 -182 66 -1 84 3 143 32 49 24 79 48 107
83 75 95 70 -27 70 1730 0 1344 -2 1580 -14 1592 -18 17 -132 58 -257 92 -197
53 -453 68 -664 39z m405 -84 c117 -13 190 -29 190 -42 0 -5 -39 -49 -88 -97
-347 -342 -788 -426 -1277 -244 -38 14 -74 29 -79 33 -10 10 115 85 259 154
339 164 683 232 995 196z m-1450 -502 c0 -13 -9 -66 -20 -118 -108 -511 -399
-802 -884 -885 -54 -9 -100 -14 -103 -11 -6 6 91 131 231 299 185 223 445 483
651 648 61 49 113 89 118 89 4 0 7 -10 7 -22z m-1407 -1308 c110 -34 202 -117
256 -230 23 -48 26 -67 26 -160 0 -78 -5 -117 -18 -152 l-18 -47 -181 120
c-143 96 -185 119 -204 115 -27 -7 -42 -49 -25 -70 6 -7 88 -64 181 -126 94
-62 170 -116 170 -120 0 -17 -78 -75 -140 -104 -81 -38 -204 -48 -293 -22
-220 64 -349 311 -276 528 73 219 302 336 522 268z m-447 -803 c150 -76 217
-265 144 -407 -43 -85 -518 -787 -551 -815 -88 -74 -221 -93 -327 -46 -139 62
-217 239 -168 379 18 49 522 806 563 845 17 15 57 39 89 53 78 33 175 30 250
-9z"/>
</g>
</svg>
